<svg width="285" height="285" viewBox="0 0 285 285" fill="none" xmlns="http://www.w3.org/2000/svg">
<g clip-path="url(#clip0_519_113)">
<g clip-path="url(#clip1_519_113)">
<path d="M142.338 -0.150146C63.8087 -0.150146 0.146973 63.5115 0.146973 142.041C0.146973 220.57 63.8087 284.232 142.338 284.232C220.867 284.232 284.529 220.57 284.529 142.041C284.529 63.5115 220.867 -0.150146 142.338 -0.150146ZM142.338 40.1069C198.643 40.1069 244.272 85.7331 244.272 142.041C244.272 198.345 198.643 243.975 142.338 243.975C86.0331 243.975 40.404 198.345 40.404 142.041C40.404 85.736 86.0331 40.1069 142.338 40.1069ZM142.338 87.5646C112.267 87.5646 87.8617 111.973 87.8617 142.041C87.8617 172.111 112.27 196.517 142.338 196.517C172.408 196.517 196.814 172.111 196.814 142.041C196.814 111.97 172.408 87.5646 142.338 87.5646ZM142.338 131.2C148.304 131.2 153.178 136.077 153.178 142.041C153.178 148.007 148.301 152.881 142.338 152.881C136.374 152.881 131.497 148.004 131.497 142.041C131.497 136.077 136.374 131.2 142.338 131.2Z" fill="black"/>
</g>
</g>
<defs>
<clipPath id="clip0_519_113">
<rect width="284.382" height="284.382" fill="white" transform="translate(0.146973 -0.150146)"/>
</clipPath>
<clipPath id="clip1_519_113">
<rect width="284.382" height="284.382" fill="white" transform="translate(0.146973 -0.150146)"/>
</clipPath>
</defs>
</svg>
