<svg width="285" height="285" viewBox="0 0 285 285" fill="none" xmlns="http://www.w3.org/2000/svg">
<g clip-path="url(#clip0_519_150)">
<g clip-path="url(#clip1_519_150)">
<path d="M142.191 0C63.6617 0 0 63.6617 0 142.191C0 220.72 63.6617 284.382 142.191 284.382C220.72 284.382 284.382 220.72 284.382 142.191C284.382 63.6617 220.72 0 142.191 0ZM142.191 40.2571C198.496 40.2571 244.125 85.8833 244.125 142.191C244.125 198.496 198.496 244.125 142.191 244.125C85.8861 244.125 40.2571 198.496 40.2571 142.191C40.2571 85.8861 85.8861 40.2571 142.191 40.2571ZM142.191 87.7147C112.12 87.7147 87.7147 112.123 87.7147 142.191C87.7147 172.261 112.123 196.667 142.191 196.667C172.261 196.667 196.667 172.261 196.667 142.191C196.667 112.12 172.261 87.7147 142.191 87.7147ZM142.191 131.35C148.157 131.35 153.031 136.227 153.031 142.191C153.031 148.157 148.154 153.031 142.191 153.031C136.227 153.031 131.35 148.154 131.35 142.191C131.35 136.227 136.227 131.35 142.191 131.35Z" fill="#1C0950"/>
</g>
</g>
<defs>
<clipPath id="clip0_519_150">
<rect width="284.382" height="284.382" fill="white"/>
</clipPath>
<clipPath id="clip1_519_150">
<rect width="284.382" height="284.382" fill="white"/>
</clipPath>
</defs>
</svg>
