<svg width="701" height="206" viewBox="0 0 701 206" fill="none" xmlns="http://www.w3.org/2000/svg">
<g clip-path="url(#clip0_519_127)">
<g clip-path="url(#clip1_519_127)">
<g clip-path="url(#clip2_519_127)">
<g clip-path="url(#clip3_519_127)">
<path d="M52.6115 159.296H0.0219727V4.36427H52.6115C69.0502 4.36427 82.7686 7.81204 93.7666 14.7076C104.735 21.6322 112.984 30.9427 118.512 42.6389C124.04 54.3643 126.804 67.3553 126.804 81.6119C126.804 97.3233 123.793 110.998 117.77 122.636C111.718 134.274 103.135 143.294 92.0209 149.695C80.8774 156.095 67.7409 159.296 52.6115 159.296ZM111.529 81.6119C111.529 69.2465 109.245 58.263 104.677 48.6616C100.08 39.0602 93.4174 31.5246 84.6889 26.0547C75.9603 20.6139 65.2679 17.8935 52.6115 17.8935H15.2969V145.767H52.6115C65.4133 145.767 76.1785 142.93 84.9071 137.256C93.6356 131.583 100.255 123.902 104.765 114.213C109.274 104.553 111.529 93.6864 111.529 81.6119ZM167.828 159.296H152.99V45.6067H167.828V159.296ZM167.828 21.8214H152.99V0H167.828V21.8214ZM369.676 92.7408V159.296H354.837V95.7958C354.837 82.5575 352.728 72.8106 348.509 66.5552C344.261 60.2997 338.006 57.172 329.743 57.172C321.16 57.172 313.479 60.227 306.699 66.337C299.949 72.4469 295.192 80.3026 292.428 89.904V159.296H277.59V95.7958C277.59 82.412 275.553 72.6215 271.48 66.4242C267.406 60.2561 261.151 57.172 252.713 57.172C244.276 57.172 236.638 60.1542 229.801 66.1187C222.964 72.0832 218.163 79.9389 215.399 89.6858V159.296H200.56V45.6067H214.09V71.3559C218.89 62.4818 225.029 55.6445 232.507 50.8438C240.013 46.0431 248.349 43.6427 257.514 43.6427C266.97 43.6427 274.607 46.334 280.427 51.7166C286.246 57.0992 289.81 64.1548 291.119 72.8834C296.356 63.282 302.641 56.0082 309.973 51.062C317.334 46.1158 325.669 43.6427 334.98 43.6427C341.381 43.6427 346.793 44.8065 351.215 47.1341C355.667 49.4618 359.231 52.7641 361.908 57.041C364.613 61.3471 366.577 66.5115 367.799 72.5342C369.05 78.586 369.676 85.3215 369.676 92.7408ZM459.1 161.478C449.644 161.478 441.177 159.005 433.7 154.059C426.193 149.113 420.258 143.003 415.894 135.729V205.775H401.055V45.6067H414.366V67.6462C418.876 60.5179 424.913 54.728 432.478 50.2764C440.043 45.854 448.116 43.6427 456.7 43.6427C464.555 43.6427 471.756 45.2721 478.303 48.5307C484.849 51.8185 490.523 56.2264 495.323 61.7545C500.124 67.2825 503.877 73.5671 506.583 80.6081C509.26 87.6782 510.598 94.9957 510.598 102.56C510.598 113.18 508.46 122.956 504.183 131.888C499.877 140.85 493.869 148.022 486.158 153.404C478.448 158.787 469.429 161.478 459.1 161.478ZM454.954 148.385C461.209 148.385 466.81 147.105 471.756 144.545C476.702 142.013 480.965 138.566 484.544 134.201C488.093 129.837 490.814 124.92 492.705 119.45C494.596 114.009 495.542 108.379 495.542 102.56C495.542 96.4504 494.494 90.6314 492.399 85.1033C490.275 79.5752 487.249 74.7018 483.322 70.483C479.394 66.2642 474.884 62.9183 469.792 60.4452C464.701 57.9721 459.173 56.7355 453.208 56.7355C449.426 56.7355 445.498 57.4629 441.425 58.9177C437.351 60.3724 433.467 62.4382 429.772 65.115C426.048 67.8208 422.949 70.8467 420.476 74.1926C418.003 77.5386 416.475 81.1027 415.894 84.8851V119.799C418.221 125.182 421.349 130.012 425.277 134.289C429.205 138.595 433.758 142.013 438.937 144.545C444.087 147.105 449.426 148.385 454.954 148.385ZM536.347 138.566V0H551.186V133.547C551.186 139.22 552.204 142.93 554.241 144.676C556.278 146.421 558.751 147.294 561.66 147.294C564.279 147.294 566.897 147.003 569.516 146.421C572.135 145.839 574.389 145.258 576.281 144.676L578.899 156.677C576.135 157.841 572.746 158.787 568.73 159.514C564.744 160.242 561.297 160.605 558.387 160.605C551.695 160.605 546.356 158.641 542.37 154.713C538.355 150.786 536.347 145.403 536.347 138.566ZM644.145 161.478C635.998 161.478 628.434 159.907 621.451 156.765C614.468 153.651 608.431 149.36 603.339 143.89C598.247 138.449 594.276 132.165 591.425 125.036C588.602 117.908 587.191 110.271 587.191 102.124C587.191 91.5043 589.621 81.7574 594.48 72.8834C599.368 64.0093 606.103 56.9101 614.686 51.5857C623.269 46.2904 633.016 43.6427 643.927 43.6427C655.128 43.6427 664.904 46.334 673.255 51.7166C681.634 57.0992 688.224 64.1839 693.025 72.9706C697.826 81.7865 700.226 91.4315 700.226 101.906C700.226 103.07 700.226 104.19 700.226 105.266C700.226 106.372 700.153 107.216 700.008 107.798H602.684C603.412 115.944 605.696 123.174 609.536 129.488C613.406 135.831 618.425 140.85 624.593 144.545C630.79 148.269 637.526 150.131 644.8 150.131C652.219 150.131 659.231 148.24 665.835 144.457C672.469 140.675 677.095 135.729 679.714 129.619L692.588 133.11C690.261 138.493 686.697 143.366 681.896 147.731C677.095 152.095 671.451 155.47 664.963 157.856C658.503 160.271 651.564 161.478 644.145 161.478ZM602.248 97.1051H686.26C685.678 88.813 683.453 81.5392 679.583 75.2837C675.742 69.0283 670.724 64.1112 664.526 60.5325C658.358 56.9829 651.564 55.2081 644.145 55.2081C636.726 55.2081 629.961 56.9829 623.851 60.5325C617.741 64.1112 612.751 69.0573 608.882 75.371C605.041 81.7137 602.83 88.9584 602.248 97.1051Z" fill="white"/>
</g>
</g>
</g>
</g>
<defs>
<clipPath id="clip0_519_127">
<rect width="700.248" height="205.775" fill="white"/>
</clipPath>
<clipPath id="clip1_519_127">
<rect width="700.248" height="205.775" fill="white"/>
</clipPath>
<clipPath id="clip2_519_127">
<rect width="700.248" height="205.775" fill="white"/>
</clipPath>
<clipPath id="clip3_519_127">
<rect width="700.248" height="205.775" fill="white"/>
</clipPath>
</defs>
</svg>
